<svg width="516.996875px" height="275px" xmlns="http://www.w3.org/2000/svg" viewBox="-8.498437500000023 -62.5 516.996875 275" style="background: rgba(0, 0, 0, 0);" preserveAspectRatio="xMidYMid"><defs><filter id="editing-hole" x="-100%" y="-100%" width="300%" height="300%"><feFlood flood-color="#000" result="black"></feFlood><feMorphology operator="dilate" radius="2" in="SourceGraphic" result="erode"></feMorphology><feGaussianBlur in="erode" stdDeviation="4" result="blur"></feGaussianBlur><feOffset in="blur" dx="2" dy="2" result="offset"></feOffset><feComposite operator="atop" in="offset" in2="black" result="merge"></feComposite><feComposite operator="in" in="merge" in2="SourceGraphic" result="inner-shadow"></feComposite></filter></defs><g filter="url(#editing-hole)"><g transform="translate(68.49498009681702, 130.4849967956543)"><path d="M29.31 1.02L29.31 1.02Q21.76 1.02 15.62-1.92L15.62-1.92L15.62-1.92Q9.47-4.86 5.95-10.56L5.95-10.56L5.95-10.56Q2.43-16.26 2.43-24.32L2.43-24.32L2.43-51.84L24.06-51.84L24.06-25.60L24.06-25.60Q24.06-22.66 25.28-20.93L25.28-20.93L25.28-20.93Q26.50-19.20 29.06-19.20L29.06-19.20L29.06-19.20Q31.49-19.20 32.70-20.80L32.70-20.80L32.70-20.80Q33.92-22.40 33.92-25.34L33.92-25.34L33.92-109.95L56.06-109.95L56.06-27.52L56.06-27.52Q56.06-18.94 52.67-12.48L52.67-12.48L52.67-12.48Q49.28-6.02 43.20-2.50L43.20-2.50L43.20-2.50Q37.12 1.02 29.31 1.02L29.31 1.02ZM86.02 0L64.51 0L64.51-109.95L87.17-109.95L97.28-57.34L97.28-109.95L118.53-109.95L118.53 0L97.02 0L86.02-55.04L86.02 0ZM159.74 0L137.73 0L137.73-88.83L124.67-88.83L124.67-109.95L172.80-109.95L172.80-88.83L159.74-88.83L159.74 0ZM200.83 0L178.94 0L178.94-109.95L200.83-109.95L200.83-70.66L211.20-70.66L211.20-109.95L233.09-109.95L233.09 0L211.20 0L211.20-49.92L200.83-49.92L200.83 0ZM264.32 0L242.82 0L242.82-109.95L265.47-109.95L275.58-57.34L275.58-109.95L296.83-109.95L296.83 0L275.33 0L264.32-55.04L264.32 0ZM328.06 0L306.56 0L306.56-109.95L329.22-109.95L339.33-57.34L339.33-109.95L360.58-109.95L360.58 0L339.07 0L328.06-55.04L328.06 0Z" fill="#ccc"></path></g></g><style>text {
  font-size: 64px;
  font-family: Arial Black;
  dominant-baseline: central;
  text-anchor: middle;
}</style></svg>